<svg width="300" height="21" viewBox="0 0 300 21" fill="none" xmlns="http://www.w3.org/2000/svg">
<path d="M1.40909 15V3.36362H8.38636V4.61362H2.81818V8.54544H7.86364V9.79544H2.81818V15H1.40909ZM20.6179 9.1818C20.6179 10.4091 20.3963 11.4697 19.9531 12.3636C19.5099 13.2576 18.902 13.947 18.1293 14.4318C17.3565 14.9167 16.474 15.1591 15.4815 15.1591C14.4891 15.1591 13.6065 14.9167 12.8338 14.4318C12.0611 13.947 11.4531 13.2576 11.0099 12.3636C10.5668 11.4697 10.3452 10.4091 10.3452 9.1818C10.3452 7.95453 10.5668 6.89392 11.0099 5.99998C11.4531 5.10605 12.0611 4.41665 12.8338 3.9318C13.6065 3.44695 14.4891 3.20453 15.4815 3.20453C16.474 3.20453 17.3565 3.44695 18.1293 3.9318C18.902 4.41665 19.5099 5.10605 19.9531 5.99998C20.3963 6.89392 20.6179 7.95453 20.6179 9.1818ZM19.2543 9.1818C19.2543 8.17423 19.0857 7.32385 18.7486 6.63067C18.4152 5.93748 17.9626 5.41286 17.3906 5.0568C16.8224 4.70074 16.1861 4.52271 15.4815 4.52271C14.777 4.52271 14.1387 4.70074 13.5668 5.0568C12.9986 5.41286 12.5459 5.93748 12.2088 6.63067C11.8755 7.32385 11.7088 8.17423 11.7088 9.1818C11.7088 10.1894 11.8755 11.0398 12.2088 11.7329C12.5459 12.4261 12.9986 12.9507 13.5668 13.3068C14.1387 13.6629 14.777 13.8409 15.4815 13.8409C16.1861 13.8409 16.8224 13.6629 17.3906 13.3068C17.9626 12.9507 18.4152 12.4261 18.7486 11.7329C19.0857 11.0398 19.2543 10.1894 19.2543 9.1818ZM22.9872 15V3.36362H26.919C27.8281 3.36362 28.5743 3.51892 29.1577 3.82953C29.741 4.13635 30.1728 4.5587 30.4531 5.09658C30.7334 5.63445 30.8736 6.2462 30.8736 6.9318C30.8736 7.61741 30.7334 8.22536 30.4531 8.75567C30.1728 9.28597 29.7429 9.70264 29.1634 10.0057C28.5838 10.3049 27.8433 10.4545 26.9418 10.4545H23.7599V9.1818H26.8963C27.5175 9.1818 28.0175 9.09089 28.3963 8.90908C28.7789 8.72726 29.0554 8.46968 29.2259 8.13635C29.4001 7.79923 29.4872 7.39771 29.4872 6.9318C29.4872 6.46589 29.4001 6.0587 29.2259 5.71021C29.0516 5.36173 28.7732 5.09279 28.3906 4.90339C28.008 4.71021 27.5024 4.61362 26.8736 4.61362H24.3963V15H22.9872ZM28.4645 9.77271L31.3281 15H29.6918L26.8736 9.77271H28.4645ZM33.2216 3.36362H34.9034L38.858 13.0227H38.9943L42.9489 3.36362H44.6307V15H43.3125V6.15908H43.1989L39.5625 15H38.2898L34.6534 6.15908H34.5398V15H33.2216V3.36362Z" fill="#959595"/>
<path d="M47.0582 15V3.36362H51.6491C52.5317 3.36362 53.2836 3.53218 53.9048 3.8693C54.526 4.20264 54.9995 4.66665 55.3253 5.26135C55.6548 5.85226 55.8196 6.53408 55.8196 7.3068C55.8196 8.07953 55.6529 8.76135 55.3196 9.35226C54.9863 9.94317 54.5033 10.4034 53.8707 10.7329C53.242 11.0625 52.4806 11.2273 51.5866 11.2273H48.6605V9.25567H51.1889C51.6624 9.25567 52.0526 9.17423 52.3594 9.01135C52.67 8.84468 52.901 8.61551 53.0526 8.32385C53.2079 8.02839 53.2855 7.68938 53.2855 7.3068C53.2855 6.92044 53.2079 6.58332 53.0526 6.29544C52.901 6.00377 52.67 5.77839 52.3594 5.6193C52.0488 5.45642 51.6548 5.37498 51.1776 5.37498H49.5185V15H47.0582ZM58.0795 15H55.4432L59.4602 3.36362H62.6307L66.642 15H64.0057L61.0909 6.02271H61L58.0795 15ZM57.9148 10.4261H64.142V12.3466H57.9148V10.4261ZM66.1733 3.36362H68.929L71.5824 8.37498H71.696L74.3494 3.36362H77.1051L72.8608 10.8863V15H70.4176V10.8863L66.1733 3.36362Z" fill="white"/>
<path fill-rule="evenodd" clip-rule="evenodd" d="M87.2028 13.8617L87.1995 13.8662L87.1963 13.8707C87.0183 14.1227 86.6196 14.1968 86.3077 13.9765C86.0581 13.8002 85.9831 13.4074 86.1957 13.097C86.5128 12.6927 86.7431 12.2201 86.8944 11.7581C87.0519 11.2771 87.1251 10.7305 87.1223 10.1944C87.1194 9.65838 87.0404 9.11262 86.8778 8.63333C86.7216 8.17295 86.4862 7.7028 86.1648 7.30194C85.9489 6.99377 86.0198 6.60017 86.2675 6.42122C86.577 6.19769 86.9765 6.26749 87.1571 6.51761L87.1604 6.5221L87.1637 6.5265C87.5638 7.05405 87.8919 7.64018 88.088 8.21523C88.2944 8.89171 88.4259 9.54608 88.4293 10.1875C88.4329 10.8624 88.3684 11.5013 88.1207 12.1302C87.851 12.8151 87.5898 13.34 87.2028 13.8617ZM90.0954 15.1145L90.1032 15.1034L90.1104 15.0919C90.9971 13.6713 91.5085 11.957 91.499 10.1711C91.4895 8.3857 90.9601 6.67737 90.0587 5.26646C89.8634 4.95669 89.9511 4.59045 90.2804 4.35261C90.5015 4.19288 90.9166 4.24944 91.1629 4.57952C92.1806 6.19416 92.7953 8.146 92.8061 10.1642C92.8172 12.2512 92.2238 14.1397 91.2224 15.7661C90.9908 16.085 90.6361 16.1743 90.3303 15.9936C89.9988 15.7507 89.9382 15.337 90.0954 15.1145ZM95.2861 2.45724L95.2948 2.47449L95.3049 2.49097C96.6839 4.73919 97.4502 7.33243 97.4652 10.1394C97.4801 12.945 96.7421 15.5451 95.3884 17.8072C95.1808 18.1409 94.8304 18.235 94.4752 18.0697C94.1519 17.859 94.065 17.5098 94.2339 17.1571C95.3852 15.1125 96.1011 12.703 96.0875 10.1467C96.074 7.60176 95.4085 5.19618 94.1569 3.15136C93.9875 2.80221 94.0714 2.45448 94.3909 2.24137C94.7763 2.05725 95.1518 2.1922 95.2861 2.45724ZM99.3691 0.317663L99.3751 0.329447L99.3817 0.340883C101.053 3.22941 102.035 6.53184 102.054 10.1149C102.073 13.6943 101.128 17.0039 99.491 19.9079C99.2831 20.2378 98.9343 20.3302 98.5808 20.1656C98.2585 19.9556 98.1712 19.608 98.3379 19.2564C99.915 16.5648 100.764 13.4463 100.747 10.1219C100.729 6.78887 99.7717 3.68251 98.2427 1.0174C98.0511 0.628355 98.1861 0.247321 98.4535 0.111831C98.846 -0.0870443 99.2325 0.0479557 99.3691 0.317663Z" fill="white"/>
</svg>
